<svg id="visual" viewBox="0 0 900 600" width="900" height="600" xmlns="http://www.w3.org/2000/svg" xmlns:xlink="http://www.w3.org/1999/xlink" version="1.1"><path d="M0 103L82 103L82 85L164 85L164 109L245 109L245 91L327 91L327 67L409 67L409 127L491 127L491 55L573 55L573 115L655 115L655 61L736 61L736 121L818 121L818 61L900 61L900 91L900 0L900 0L818 0L818 0L736 0L736 0L655 0L655 0L573 0L573 0L491 0L491 0L409 0L409 0L327 0L327 0L245 0L245 0L164 0L164 0L82 0L82 0L0 0Z" fill="#ffd166"></path><path d="M0 157L82 157L82 151L164 151L164 157L245 157L245 175L327 175L327 151L409 151L409 175L491 175L491 133L573 133L573 187L655 187L655 145L736 145L736 175L818 175L818 97L900 97L900 169L900 89L900 59L818 59L818 119L736 119L736 59L655 59L655 113L573 113L573 53L491 53L491 125L409 125L409 65L327 65L327 89L245 89L245 107L164 107L164 83L82 83L82 101L0 101Z" fill="#f3c254"></path><path d="M0 349L82 349L82 331L164 331L164 367L245 367L245 361L327 361L327 241L409 241L409 337L491 337L491 367L573 367L573 391L655 391L655 265L736 265L736 439L818 439L818 355L900 355L900 259L900 167L900 95L818 95L818 173L736 173L736 143L655 143L655 185L573 185L573 131L491 131L491 173L409 173L409 149L327 149L327 173L245 173L245 155L164 155L164 149L82 149L82 155L0 155Z" fill="#e7b442"></path><path d="M0 475L82 475L82 433L164 433L164 469L245 469L245 511L327 511L327 403L409 403L409 433L491 433L491 469L573 469L573 475L655 475L655 421L736 421L736 487L818 487L818 451L900 451L900 403L900 257L900 353L818 353L818 437L736 437L736 263L655 263L655 389L573 389L573 365L491 365L491 335L409 335L409 239L327 239L327 359L245 359L245 365L164 365L164 329L82 329L82 347L0 347Z" fill="#dba62e"></path><path d="M0 601L82 601L82 601L164 601L164 601L245 601L245 601L327 601L327 601L409 601L409 601L491 601L491 601L573 601L573 601L655 601L655 601L736 601L736 601L818 601L818 601L900 601L900 601L900 401L900 449L818 449L818 485L736 485L736 419L655 419L655 473L573 473L573 467L491 467L491 431L409 431L409 401L327 401L327 509L245 509L245 467L164 467L164 431L82 431L82 473L0 473Z" fill="#cf9816"></path></svg>