<svg id="visual" viewBox="0 0 900 600" width="900" height="600" xmlns="http://www.w3.org/2000/svg" xmlns:xlink="http://www.w3.org/1999/xlink" version="1.1"><path d="M0 283L13.7 256C27.3 229 54.7 175 82 155C109.3 135 136.7 149 163.8 152C191 155 218 147 245.2 132C272.3 117 299.7 95 327 105C354.3 115 381.7 157 409 160C436.3 163 463.7 127 491 120C518.3 113 545.7 135 573 149C600.3 163 627.7 169 654.8 165C682 161 709 147 736.2 150C763.3 153 790.7 173 818 176C845.3 179 872.7 165 886.3 158L900 151L900 0L886.3 0C872.7 0 845.3 0 818 0C790.7 0 763.3 0 736.2 0C709 0 682 0 654.8 0C627.7 0 600.3 0 573 0C545.7 0 518.3 0 491 0C463.7 0 436.3 0 409 0C381.7 0 354.3 0 327 0C299.7 0 272.3 0 245.2 0C218 0 191 0 163.8 0C136.7 0 109.3 0 82 0C54.7 0 27.3 0 13.7 0L0 0Z" fill="#b5bfe2"></path><path d="M0 409L13.7 394C27.3 379 54.7 349 82 327C109.3 305 136.7 291 163.8 287C191 283 218 289 245.2 289C272.3 289 299.7 283 327 289C354.3 295 381.7 313 409 324C436.3 335 463.7 339 491 335C518.3 331 545.7 319 573 316C600.3 313 627.7 319 654.8 333C682 347 709 369 736.2 378C763.3 387 790.7 383 818 377C845.3 371 872.7 363 886.3 359L900 355L900 149L886.3 156C872.7 163 845.3 177 818 174C790.7 171 763.3 151 736.2 148C709 145 682 159 654.8 163C627.7 167 600.3 161 573 147C545.7 133 518.3 111 491 118C463.7 125 436.3 161 409 158C381.7 155 354.3 113 327 103C299.7 93 272.3 115 245.2 130C218 145 191 153 163.8 150C136.7 147 109.3 133 82 153C54.7 173 27.3 227 13.7 254L0 281Z" fill="#a5b1db"></path><path d="M0 463L13.7 467C27.3 471 54.7 479 82 470C109.3 461 136.7 435 163.8 428C191 421 218 433 245.2 431C272.3 429 299.7 413 327 422C354.3 431 381.7 465 409 468C436.3 471 463.7 443 491 435C518.3 427 545.7 439 573 442C600.3 445 627.7 439 654.8 446C682 453 709 473 736.2 486C763.3 499 790.7 505 818 499C845.3 493 872.7 475 886.3 466L900 457L900 353L886.3 357C872.7 361 845.3 369 818 375C790.7 381 763.3 385 736.2 376C709 367 682 345 654.8 331C627.7 317 600.3 311 573 314C545.7 317 518.3 329 491 333C463.7 337 436.3 333 409 322C381.7 311 354.3 293 327 287C299.7 281 272.3 287 245.2 287C218 287 191 281 163.8 285C136.7 289 109.3 303 82 325C54.7 347 27.3 377 13.7 392L0 407Z" fill="#94a3d4"></path><path d="M0 547L13.7 550C27.3 553 54.7 559 82 557C109.3 555 136.7 545 163.8 534C191 523 218 511 245.2 506C272.3 501 299.7 503 327 512C354.3 521 381.7 537 409 537C436.3 537 463.7 521 491 512C518.3 503 545.7 501 573 507C600.3 513 627.7 527 654.8 536C682 545 709 549 736.2 551C763.3 553 790.7 553 818 545C845.3 537 872.7 521 886.3 513L900 505L900 455L886.3 464C872.7 473 845.3 491 818 497C790.7 503 763.3 497 736.2 484C709 471 682 451 654.8 444C627.7 437 600.3 443 573 440C545.7 437 518.3 425 491 433C463.7 441 436.3 469 409 466C381.7 463 354.3 429 327 420C299.7 411 272.3 427 245.2 429C218 431 191 419 163.8 426C136.7 433 109.3 459 82 468C54.7 477 27.3 469 13.7 465L0 461Z" fill="#8393c5"></path><path d="M0 601L13.7 601C27.3 601 54.7 601 82 601C109.3 601 136.7 601 163.8 601C191 601 218 601 245.2 601C272.3 601 299.7 601 327 601C354.3 601 381.7 601 409 601C436.3 601 463.7 601 491 601C518.3 601 545.7 601 573 601C600.3 601 627.7 601 654.8 601C682 601 709 601 736.2 601C763.3 601 790.7 601 818 601C845.3 601 872.7 601 886.3 601L900 601L900 503L886.3 511C872.7 519 845.3 535 818 543C790.7 551 763.3 551 736.2 549C709 547 682 543 654.8 534C627.7 525 600.3 511 573 505C545.7 499 518.3 501 491 510C463.7 519 436.3 535 409 535C381.7 535 354.3 519 327 510C299.7 501 272.3 499 245.2 504C218 509 191 521 163.8 532C136.7 543 109.3 553 82 555C54.7 557 27.3 551 13.7 548L0 545Z" fill="#7383b7"></path></svg>